# xmcd
#
# Track frame offsets:
#	150
#	13210
#	31610
#	47525
#	57460
#	71202
#	88960
#	103125
#	119960
#	132097
#	145585
#	158117
#	170360
#	200632
#	217435
#	233830
#
# Disc length: 3277 seconds
#
# Revision: 3
# Processed by: cddbd v1.5.2PL0 Copyright (c) Steve Scherf et al.
# Submitted via: SynApp - FreeCDDB Version: 2.5
#
DISCID=f50ccb10
DTITLE=Dixie, Various - Dixieland CD2
DYEAR=1995
DGENRE=Jazz
TTITLE0=Kenny Ball - Midnight In Moscow
TTITLE1=The Dukes of Dixieland - Riverboat Shuffle
TTITLE2=The Dukes of Dixieland - Winin' Boy Blues
TTITLE3=The Original Dixieland Stompers - Eh! La Bas
TTITLE4=The Original Dixieland Stompers - My Bonnie Is Over The Ociean
TTITLE5=The Original Dixieland Stompers - Black Roses Blues
TTITLE6=Brixie Dixie Jazz Band - It's A Plenty
TTITLE7=Brixie Dixie Jazz Band - Somebody Loves Me
TTITLE8=Kenny Ball - March Of The Siamese Children
TTITLE9=The Dukes of Dixieland - Alexander's Ragtime Blues
TTITLE10=The Original Dixieland Stompers - Buggle Call Blues
TTITLE11=The Original Dixieland Stompers - C.C. Rider
TTITLE12=Brixie Dixie Jazz Band - Basin Street Blues
TTITLE13=The Original Dixieland Stompers - Raggie Time
TTITLE14=The Station Hall Jazz Band - Casey Jones
TTITLE15=The Original Dixieland Stompers - Over In The Gloryland
EXTD=YEAR: 1999
EXTT0=
EXTT1=
EXTT2=
EXTT3=
EXTT4=
EXTT5=
EXTT6=
EXTT7=
EXTT8=
EXTT9=
EXTT10=
EXTT11=
EXTT12=
EXTT13=
EXTT14=
EXTT15=
PLAYORDER=
